<?xml version="1.0" encoding="iso-8859-1"?>
<!-- Generator: Adobe Illustrator 16.0.0, SVG Export Plug-In . SVG Version: 6.00 Build 0)  -->
<!DOCTYPE svg PUBLIC "-//W3C//DTD SVG 1.1//EN" "http://www.w3.org/Graphics/SVG/1.1/DTD/svg11.dtd">
<svg version="1.1" id="Capa_1" xmlns="http://www.w3.org/2000/svg" xmlns:xlink="http://www.w3.org/1999/xlink" x="0px" y="0px"
	 width="358.679px" height="358.679px" viewBox="0 0 358.679 358.679" style="enable-background:new 0 0 358.679 358.679;"
	 xml:space="preserve">
<g>
	<g>
		<g>
			<circle cx="221.355" cy="158.094" r="2.465"/>
		</g>
		<g>
			<path d="M118.22,167.864h118.657v-19.086H118.22V167.864z M221.355,152.449c3.104,0,5.644,2.54,5.644,5.651
				c0,3.11-2.54,5.638-5.644,5.638c-3.117,0-5.639-2.534-5.639-5.638S218.238,152.449,221.355,152.449z M123.711,152.021h29.342
				v4.062h-29.342V152.021z"/>
		</g>
		<g>
			<path d="M221.355,177.45c1.362,0,2.468,1.108,2.468,2.471c0,1.366-1.105,2.474-2.468,2.474c-1.363,0-2.469-1.108-2.469-2.474
				C218.887,178.559,219.992,177.45,221.355,177.45z"/>
		</g>
		<g>
			<path d="M118.22,190.394h118.657v-19.35H118.22V190.394z M221.355,174.283c3.104,0,5.644,2.534,5.644,5.638
				c0,3.12-2.54,5.638-5.644,5.638c-3.117,0-5.639-2.519-5.639-5.638C215.717,176.811,218.238,174.283,221.355,174.283z
				 M123.711,173.842h29.342v4.059h-29.342V173.842z"/>
		</g>
		<g>
			<circle cx="221.355" cy="135.018" r="2.471"/>
		</g>
		<g>
			<path d="M118.22,145.34h118.657v-19.077H118.22V145.34z M221.355,129.379c3.104,0,5.644,2.522,5.644,5.639
				c0,3.11-2.54,5.639-5.644,5.639c-3.117,0-5.639-2.528-5.639-5.639C215.717,131.901,218.238,129.379,221.355,129.379z
				 M123.711,130.958h29.342v4.065h-29.342V130.958z"/>
		</g>
		<g>
			<polygon points="132.935,65.032 118.649,123.077 236.577,123.077 225.3,65.032 			"/>
		</g>
		<g>
			<path d="M333.831,0H24.83C12.661,0,2.762,9.898,2.762,22.073v232.746c0,12.172,9.899,22.08,22.068,22.08h87.271
				c6.482,8.4,19.573,28.559,14.991,38.136c-1.861,3.867-6.912,5.825-15.033,5.825c-43.916,0-45.189,15.559-45.189,17.336v20.482
				h224.916v-26.782l-1.237-0.931c-0.54-0.414-13.643-10.105-45.948-10.105c-7.062,0-8.467-2.75-8.941-3.663
				c-4.018-7.891,6.899-28.319,15.294-40.305h82.879c12.178,0,22.085-9.901,22.085-22.073V22.073C355.916,9.905,346.009,0,333.831,0
				z M230.056,320.079c2.402,4.708,7.29,7.086,14.544,7.086c24.535,0,37.098,5.896,40.881,8.047v17.174H73.172v-14.027
				c0.321-3.111,7.95-11.188,38.887-11.188c10.761,0,17.732-3.164,20.717-9.397c5.761-12.046-6.164-31.478-12.823-40.868h123.393
				C236.806,286.927,224.219,308.67,230.056,320.079z M168.93,253.763c0-5.759,4.66-10.412,10.397-10.412
				c5.75,0,10.4,4.659,10.4,10.412c0,5.74-4.656,10.395-10.4,10.395C173.584,264.157,168.93,259.497,168.93,253.763z
				 M336.989,230.199H21.674V22.917h315.315V230.199z"/>
		</g>
	</g>
</g>
<g>
</g>
<g>
</g>
<g>
</g>
<g>
</g>
<g>
</g>
<g>
</g>
<g>
</g>
<g>
</g>
<g>
</g>
<g>
</g>
<g>
</g>
<g>
</g>
<g>
</g>
<g>
</g>
<g>
</g>
</svg>
